<svg width="1023" height="973" viewBox="0 0 1023 973" fill="none" xmlns="http://www.w3.org/2000/svg">
<rect width="1022.06" height="973" fill="#804736"/>
<path d="M479.387 694.148L402.596 755.103L281.096 712.489L356.31 652.073L479.387 694.148Z" fill="#2B2B2B"/>
<path d="M280.044 736.223V712.489L402.595 754.563L480.439 693.609V717.883L402.595 779.377L280.044 736.223Z" fill="#2A2A2A"/>
<path d="M423.933 736.223L393.128 726.513V687.136L432.05 659.625L460.978 670.414V707.941L423.933 736.223Z" fill="#2A2A2A"/>
<path d="M686.865 758.538L610.073 819.492L488.574 776.878L563.788 716.463L686.865 758.538Z" fill="#2B2B2B"/>
<path d="M487.522 800.612V776.878L610.074 818.953L687.917 757.998V782.272L610.074 843.766L487.522 800.612Z" fill="#2A2A2A"/>
<path d="M538.553 779.774L507.748 770.064V730.687L546.67 703.176L575.598 713.965V751.492L538.553 779.774Z" fill="#2A2A2A"/>
<path d="M297.559 652.802V502.302V486.302L499.559 357.802L741.059 425.802V590.302L565.559 741.802L297.559 652.802Z" fill="#F1F1F1"/>
<path d="M279.059 538.302V439.802L492.334 305.802L753.059 387.802V493.302L579.895 634.802L279.059 538.302Z" fill="#FFD15B"/>
<path d="M638.059 179.802V439.802L540.559 525.302L326.559 455.802V198.302L423.059 129.802L638.059 179.802Z" fill="#FFD15B"/>
<path d="M432.059 525.802L309.059 485.228V343.802L432.059 382.056V525.802Z" fill="#F2994A"/>
<path d="M432.059 525.802L309.059 485.228V343.802L432.059 382.056V525.802Z" fill="#F2994A"/>
<path d="M493.059 344.302V487.302L432.059 525.802V382.302L308.559 344.302L369.559 305.302L493.059 344.302Z" fill="#F2994A"/>
<path d="M529.059 370.802L257.559 288.302L294.059 163.302L561.559 243.302L529.059 370.802Z" fill="#2A417A"/>
<path d="M508.559 347.302L286.559 278.302L310.059 188.302L529.059 251.802L508.559 347.302Z" fill="#182444"/>
<path d="M329.26 265.266L339.262 227.459L349.934 230.282C353.223 231.153 355.939 232.649 358.082 234.772C360.224 236.894 361.624 239.478 362.282 242.523C362.957 245.573 362.843 248.839 361.94 252.324L361.301 254.738C360.358 258.305 358.839 261.246 356.744 263.563C354.667 265.884 352.157 267.425 349.215 268.184C346.29 268.947 343.127 268.898 339.725 268.035L329.26 265.266ZM343.162 232.881L335.324 262.509L340.569 263.896C344.413 264.913 347.715 264.508 350.476 262.683C353.254 260.861 355.227 257.744 356.395 253.329L356.979 251.122C358.115 246.829 357.984 243.229 356.586 240.322C355.209 237.401 352.674 235.434 348.978 234.419L343.162 232.881ZM380.752 278.888C380.621 278.26 380.657 277.214 380.86 275.749C378.013 277.478 375.04 277.932 371.942 277.113C369.172 276.38 367.101 274.999 365.731 272.969C364.382 270.927 364.025 268.703 364.662 266.296C365.436 263.371 367.144 261.396 369.785 260.372C372.449 259.336 375.797 259.351 379.831 260.418L384.505 261.654L385.089 259.447C385.533 257.768 385.383 256.302 384.64 255.05C383.902 253.78 382.555 252.887 380.599 252.369C378.885 251.916 377.333 251.969 375.945 252.528C374.556 253.086 373.699 253.98 373.374 255.209L368.544 253.932C368.915 252.529 369.766 251.31 371.096 250.272C372.448 249.222 374.073 248.541 375.971 248.228C377.886 247.92 379.865 248.036 381.908 248.576C385.145 249.432 387.466 250.917 388.87 253.029C390.279 255.125 390.643 257.601 389.961 260.458L386.54 273.39C385.858 275.969 385.644 278.107 385.899 279.805L385.789 280.22L380.752 278.888ZM373.749 273.118C375.255 273.516 376.786 273.504 378.342 273.083C379.898 272.661 381.144 271.907 382.08 270.821L383.605 265.056L379.84 264.06C373.954 262.503 370.556 263.447 369.644 266.892C369.246 268.398 369.437 269.708 370.216 270.822C370.996 271.936 372.173 272.701 373.749 273.118ZM404.309 255.058L403.531 258.63C406.392 256.498 409.553 255.889 413.016 256.805C418.953 258.376 421.062 262.518 419.342 269.231L414.43 287.797L409.626 286.526L414.545 267.934C415.063 265.904 414.992 264.283 414.331 263.071C413.687 261.863 412.404 261.005 410.483 260.497C408.925 260.085 407.447 260.139 406.051 260.658C404.654 261.178 403.448 262.026 402.433 263.202L397.137 283.222L392.333 281.951L399.765 253.856L404.309 255.058ZM433.844 289.293C435.558 289.746 437.193 289.623 438.749 288.923C440.304 288.223 441.357 287.113 441.908 285.591L446.452 286.794C445.94 288.381 444.981 289.766 443.575 290.95C442.169 292.134 440.494 292.932 438.551 293.344C436.626 293.761 434.711 293.717 432.807 293.214C428.981 292.202 426.271 290.123 424.677 286.979C423.104 283.821 422.904 280.027 424.076 275.595L424.289 274.79C425.012 272.055 426.158 269.756 427.725 267.892C429.292 266.029 431.167 264.755 433.348 264.073C435.546 263.395 437.926 263.395 440.488 264.073C443.639 264.906 446.003 266.541 447.581 268.977C449.177 271.418 449.645 274.163 448.987 277.212L444.443 276.01C444.785 274.156 444.487 272.484 443.547 270.994C442.629 269.492 441.262 268.5 439.444 268.019C437.003 267.374 434.874 267.755 433.057 269.164C431.261 270.559 429.924 272.919 429.045 276.243L428.804 277.152C427.948 280.389 427.955 283.058 428.825 285.159C429.696 287.26 431.369 288.638 433.844 289.293ZM461.032 300.68C457.224 299.673 454.455 297.607 452.726 294.482C451.001 291.34 450.692 287.674 451.801 283.485L452.034 282.602C452.771 279.815 453.957 277.471 455.589 275.569C457.244 273.654 459.186 272.334 461.416 271.609C463.667 270.871 465.909 270.797 468.142 271.388C471.795 272.354 474.316 274.308 475.704 277.25C477.093 280.192 477.195 283.905 476.009 288.389L475.48 290.388L456.446 285.353C455.783 288.141 455.995 290.596 457.082 292.717C458.191 294.826 459.94 296.196 462.329 296.828C464.026 297.277 465.554 297.311 466.915 296.93C468.275 296.549 469.548 295.904 470.733 294.995L473.062 298.056C469.751 301.051 465.741 301.926 461.032 300.68ZM467.098 275.335C465.159 274.822 463.344 275.101 461.653 276.173C459.967 277.227 458.631 278.985 457.646 281.447L471.72 285.17L471.816 284.807C472.323 282.329 472.165 280.269 471.34 278.624C470.52 276.963 469.106 275.866 467.098 275.335Z" fill="#A7A7A7"/>
</svg>
