<svg width="946" height="775" viewBox="0 0 946 775" fill="none" xmlns="http://www.w3.org/2000/svg">
<g clip-path="url(#clip0)">
<g opacity="0.5">
<path opacity="0.5" d="M930.55 0.0100687L598.05 0.82007C596.256 0.824005 594.481 1.18123 592.825 1.87134C591.169 2.56146 589.665 3.57096 588.4 4.84219C587.134 6.11343 586.131 7.62151 585.448 9.28032C584.765 10.9391 584.416 12.7162 584.42 14.5101L585.88 636.39C585.885 638.188 586.245 639.968 586.94 641.626C587.634 643.285 588.649 644.79 589.927 646.055C591.204 647.321 592.719 648.321 594.384 649C596.049 649.679 597.832 650.022 599.63 650.01L932.13 649.2C933.924 649.196 935.699 648.839 937.355 648.149C939.011 647.459 940.515 646.449 941.78 645.178C943.046 643.907 944.049 642.399 944.732 640.74C945.414 639.081 945.764 637.304 945.76 635.51L944.25 13.6201C944.237 9.99894 942.786 6.53124 940.217 3.97915C937.648 1.42707 934.171 -0.000559181 930.55 0.0100687V0.0100687Z" fill="url(#paint0_linear)"/>
</g>
<path d="M925.733 8.48522L602.903 9.27404C595.37 9.29245 589.278 15.4142 589.297 22.9473L590.774 627.616C590.793 635.149 596.914 641.241 604.448 641.222L927.277 640.433C934.81 640.415 940.902 634.293 940.883 626.76L939.406 22.0919C939.387 14.5587 933.266 8.46682 925.733 8.48522Z" fill="white"/>
<path opacity="0.3" d="M852.31 24.5199C851.314 31.2229 847.953 37.3483 842.834 41.7887C837.715 46.2291 831.176 48.6912 824.4 48.7299L703.46 49.0099C696.689 48.9978 690.145 46.5651 685.01 42.151C679.876 37.737 676.488 31.6326 675.46 24.9399L611.41 25.0999C609.663 25.1038 607.935 25.4517 606.322 26.1238C604.71 26.7958 603.246 27.7788 602.014 29.0166C600.782 30.2544 599.806 31.7228 599.141 33.3379C598.476 34.9531 598.136 36.6833 598.14 38.4299L599.53 612.1C599.534 613.848 599.882 615.579 600.556 617.192C601.229 618.805 602.214 620.27 603.454 621.503C604.694 622.735 606.164 623.711 607.782 624.375C609.399 625.038 611.132 625.376 612.88 625.37L918.88 624.63C920.626 624.626 922.355 624.278 923.967 623.606C925.579 622.934 927.043 621.951 928.276 620.713C929.508 619.475 930.484 618.007 931.149 616.392C931.814 614.777 932.154 613.046 932.15 611.3L930.76 37.6299C930.756 35.8833 930.408 34.1546 929.736 32.5425C929.064 30.9304 928.081 29.4664 926.843 28.2342C925.605 27.0019 924.137 26.0256 922.522 25.3608C920.907 24.6961 919.177 24.356 917.43 24.3599L852.31 24.5199Z" fill="#6C63FF"/>
<g opacity="0.5">
<path opacity="0.5" d="M869.38 171.24C869.378 153.631 864.817 136.323 856.142 120.999C847.466 105.675 834.971 92.8589 819.873 83.7966C804.775 74.7344 787.588 69.7351 769.985 69.2855C752.382 68.8358 734.962 72.951 719.421 81.2306C703.88 89.5102 690.747 101.672 681.3 116.533C671.853 131.393 666.415 148.446 665.514 166.032C664.613 183.618 668.279 201.138 676.158 216.886C684.036 232.635 695.857 246.075 710.47 255.9L710.53 256.35C713.862 259.544 717.795 262.046 722.1 263.71L722.23 263.26C727 267.36 747.11 273.92 770.23 273.86H770.73C785.37 273.86 801.25 271.28 815.22 263.72C815.22 263.72 815.34 263.45 815.53 262.95C819.071 261.285 822.319 259.06 825.15 256.36C825.203 255.973 825.257 255.587 825.31 255.2C838.912 245.826 850.03 233.285 857.707 218.659C865.385 204.033 869.391 187.759 869.38 171.24V171.24Z" fill="url(#paint1_linear)"/>
</g>
<path d="M767.38 270.19C822.023 270.19 866.32 225.893 866.32 171.25C866.32 116.607 822.023 72.3101 767.38 72.3101C712.737 72.3101 668.44 116.607 668.44 171.25C668.44 225.893 712.737 270.19 767.38 270.19Z" fill="#F5F5F5"/>
<path d="M798.176 31.7806L724.165 32.8916C723.06 32.9082 722.178 33.817 722.195 34.9214L722.208 35.8013C722.225 36.9058 723.133 37.7876 724.238 37.7711L798.249 36.6601C799.354 36.6435 800.236 35.7347 800.219 34.6303L800.206 33.7504C800.189 32.6459 799.281 31.764 798.176 31.7806Z" fill="#DBDBDB"/>
<path d="M816.835 36.3815C818.453 36.3572 819.745 35.0259 819.721 33.4079C819.696 31.7899 818.365 30.4979 816.747 30.5222C815.129 30.5465 813.837 31.8778 813.861 33.4958C813.885 35.1138 815.217 36.4058 816.835 36.3815Z" fill="#DBDBDB"/>
<path d="M842.38 309.9H680.38V327.9H842.38V309.9Z" fill="#F5F5F5"/>
<path d="M878.38 345.9H644.38V363.9H878.38V345.9Z" fill="#F5F5F5"/>
<g opacity="0.5">
<path opacity="0.5" d="M15.21 0.0100687L347.71 0.82007C349.504 0.824005 351.279 1.18123 352.935 1.87134C354.591 2.56146 356.095 3.57096 357.36 4.84219C358.626 6.11343 359.629 7.62151 360.312 9.28032C360.995 10.9391 361.344 12.7162 361.34 14.5101L359.88 636.39C359.875 638.188 359.515 639.968 358.82 641.626C358.126 643.285 357.111 644.79 355.833 646.055C354.556 647.321 353.041 648.321 351.376 649C349.711 649.679 347.928 650.022 346.13 650.01L13.63 649.2C11.8362 649.196 10.0607 648.839 8.40486 648.149C6.74905 647.459 5.24539 646.449 3.97973 645.178C2.71407 643.907 1.71118 642.399 1.02835 640.74C0.345508 639.081 -0.00391097 637.304 3.30184e-05 635.51L1.51004 13.6201C1.52327 9.99894 2.97379 6.53124 5.54275 3.97915C8.11171 1.42707 11.5889 -0.000559181 15.21 0.0100687V0.0100687Z" fill="url(#paint2_linear)"/>
</g>
<path d="M18.4871 640.434L341.316 641.223C348.849 641.241 354.971 635.149 354.989 627.616L356.467 22.9477C356.485 15.4146 350.393 9.29281 342.86 9.2744L20.0312 8.48558C12.4981 8.46717 6.37633 14.5591 6.35793 22.0922L4.88044 626.76C4.86203 634.294 10.9539 640.415 18.4871 640.434Z" fill="white"/>
<path opacity="0.3" d="M93.45 24.5199C94.4456 31.2229 97.8068 37.3483 102.926 41.7887C108.045 46.2291 114.584 48.6912 121.36 48.7299L242.29 49.0199C249.061 49.0078 255.605 46.5751 260.74 42.161C265.874 37.747 269.262 31.6426 270.29 24.9499L334.34 25.1099C336.087 25.1138 337.815 25.4617 339.427 26.1338C341.04 26.8058 342.504 27.7888 343.736 29.0266C344.968 30.2644 345.944 31.7328 346.609 33.3479C347.274 34.9631 347.614 36.6933 347.61 38.4399L346.22 612.11C346.215 613.856 345.866 615.585 345.192 617.197C344.519 618.808 343.535 620.271 342.296 621.503C341.058 622.734 339.588 623.709 337.973 624.373C336.357 625.036 334.627 625.375 332.88 625.37L26.88 624.63C25.1334 624.626 23.4047 624.278 21.7926 623.606C20.1805 622.934 18.7165 621.951 17.4843 620.713C16.2521 619.475 15.2757 618.007 14.6109 616.392C13.9462 614.777 13.6061 613.046 13.61 611.3L15 37.6299C15.004 35.8833 15.3519 34.1546 16.0239 32.5425C16.6959 30.9304 17.6789 29.4664 18.9167 28.2342C20.1545 27.0019 21.6229 26.0256 23.238 25.3608C24.8532 24.6961 26.5834 24.356 28.33 24.3599L93.45 24.5199Z" fill="#6C63FF"/>
<g opacity="0.5">
<path opacity="0.5" d="M76.38 171.24C76.3821 153.631 80.9429 136.323 89.6185 120.999C98.294 105.675 110.789 92.8589 125.887 83.7966C140.985 74.7344 158.172 69.7351 175.775 69.2855C193.379 68.8358 210.798 72.951 226.339 81.2306C241.881 89.5102 255.013 101.672 264.46 116.533C273.907 131.393 279.345 148.446 280.246 166.032C281.148 183.618 277.481 201.138 269.602 216.886C261.724 232.635 249.903 246.075 235.29 255.9L235.23 256.35C231.898 259.544 227.965 262.046 223.66 263.71L223.53 263.26C218.76 267.36 198.65 273.92 175.53 273.86H175.03C160.39 273.86 144.51 271.28 130.54 263.72C130.54 263.72 130.42 263.45 130.23 262.95C126.69 261.285 123.441 259.06 120.61 256.36C120.557 255.973 120.503 255.587 120.45 255.2C106.849 245.826 95.7301 233.285 88.0528 218.659C80.3755 204.033 76.3695 187.759 76.38 171.24V171.24Z" fill="url(#paint3_linear)"/>
</g>
<path d="M178.38 270.19C233.023 270.19 277.32 225.893 277.32 171.25C277.32 116.607 233.023 72.3101 178.38 72.3101C123.737 72.3101 79.4399 116.607 79.4399 171.25C79.4399 225.893 123.737 270.19 178.38 270.19Z" fill="#F5F5F5"/>
<path d="M147.5 36.6473L221.511 37.7583C222.616 37.7749 223.525 36.893 223.541 35.7886L223.554 34.9086C223.571 33.8042 222.689 32.8954 221.585 32.8789L147.573 31.7679C146.469 31.7513 145.56 32.6332 145.543 33.7376L145.53 34.6175C145.513 35.722 146.395 36.6307 147.5 36.6473Z" fill="#DBDBDB"/>
<path d="M131.893 33.4801C131.917 31.8621 130.625 30.5307 129.007 30.5064C127.389 30.4821 126.058 31.7741 126.033 33.3921C126.009 35.0101 127.301 36.3415 128.919 36.3658C130.537 36.39 131.868 35.0981 131.893 33.4801Z" fill="#DBDBDB"/>
<path d="M103.38 327.9H265.38V309.9H103.38V327.9Z" fill="#F5F5F5"/>
<path d="M67.38 363.9L301.38 363.9V345.9H67.38V363.9Z" fill="#F5F5F5"/>
<g opacity="0.5">
<path opacity="0.5" d="M637.55 124.01L305.05 124.82C303.256 124.824 301.481 125.181 299.825 125.871C298.169 126.561 296.665 127.571 295.4 128.842C294.134 130.113 293.131 131.622 292.448 133.28C291.765 134.939 291.416 136.716 291.42 138.51L292.88 760.39C292.885 762.188 293.245 763.968 293.94 765.626C294.634 767.285 295.649 768.79 296.927 770.055C298.204 771.321 299.719 772.321 301.384 773C303.049 773.679 304.832 774.022 306.63 774.01L639.13 773.2C640.924 773.196 642.699 772.839 644.355 772.149C646.011 771.459 647.515 770.449 648.78 769.178C650.046 767.907 651.049 766.399 651.732 764.74C652.414 763.081 652.764 761.304 652.76 759.51L651.25 137.62C651.237 133.999 649.786 130.531 647.217 127.979C644.648 125.427 641.171 123.999 637.55 124.01V124.01Z" fill="url(#paint4_linear)"/>
</g>
<path d="M632.736 132.491L309.907 133.28C302.374 133.298 296.282 139.42 296.301 146.953L297.778 751.621C297.797 759.154 303.918 765.246 311.451 765.228L634.28 764.439C641.814 764.421 647.906 758.299 647.887 750.766L646.41 146.097C646.391 138.564 640.269 132.472 632.736 132.491Z" fill="white"/>
<path opacity="0.4" d="M559.31 148.52C558.314 155.223 554.953 161.348 549.834 165.789C544.715 170.229 538.176 172.691 531.4 172.73L410.46 173.01C403.689 172.998 397.145 170.565 392.01 166.151C386.876 161.737 383.488 155.633 382.46 148.94L318.41 149.1C316.663 149.104 314.935 149.452 313.323 150.124C311.711 150.796 310.247 151.779 309.014 153.017C307.782 154.254 306.806 155.723 306.141 157.338C305.476 158.953 305.136 160.683 305.14 162.43L306.53 736.1C306.534 737.848 306.883 739.579 307.556 741.192C308.229 742.805 309.214 744.27 310.454 745.503C311.694 746.735 313.164 747.711 314.782 748.375C316.399 749.038 318.132 749.376 319.88 749.37L625.88 748.63C627.627 748.626 629.355 748.278 630.967 747.606C632.58 746.934 634.044 745.951 635.276 744.713C636.508 743.475 637.484 742.007 638.149 740.392C638.814 738.777 639.154 737.046 639.15 735.3L637.76 161.63C637.756 159.883 637.408 158.155 636.736 156.542C636.064 154.93 635.081 153.466 633.843 152.234C632.606 151.002 631.137 150.026 629.522 149.361C627.907 148.696 626.177 148.356 624.43 148.36L559.31 148.52Z" fill="#6C63FF"/>
<g opacity="0.5">
<path opacity="0.5" d="M576.38 295.24C576.378 277.631 571.817 260.323 563.142 244.999C554.466 229.675 541.971 216.859 526.873 207.797C511.775 198.734 494.588 193.735 476.985 193.285C459.382 192.836 441.962 196.951 426.421 205.231C410.88 213.51 397.747 225.672 388.3 240.533C378.853 255.393 373.415 272.446 372.514 290.032C371.613 307.618 375.279 325.138 383.158 340.886C391.036 356.635 402.857 370.075 417.47 379.9L417.53 380.35C420.862 383.544 424.795 386.046 429.1 387.71L429.23 387.26C434 391.36 454.11 397.92 477.23 397.86H477.73C492.37 397.86 508.25 395.28 522.22 387.72C522.22 387.72 522.34 387.45 522.53 386.95C526.071 385.285 529.319 383.06 532.15 380.36C532.203 379.973 532.257 379.587 532.31 379.2C545.911 369.826 557.03 357.285 564.707 342.659C572.385 328.033 576.39 311.759 576.38 295.24V295.24Z" fill="url(#paint5_linear)"/>
</g>
<path d="M474.38 394.19C529.023 394.19 573.32 349.893 573.32 295.25C573.32 240.607 529.023 196.31 474.38 196.31C419.737 196.31 375.44 240.607 375.44 295.25C375.44 349.893 419.737 394.19 474.38 394.19Z" fill="#F5F5F5"/>
<path d="M505.171 155.774L431.159 156.885C430.054 156.902 429.172 157.811 429.189 158.915L429.202 159.795C429.219 160.899 430.128 161.781 431.232 161.765L505.244 160.654C506.348 160.637 507.23 159.728 507.214 158.624L507.2 157.744C507.184 156.64 506.275 155.758 505.171 155.774Z" fill="#DBDBDB"/>
<path d="M523.829 160.375C525.447 160.351 526.739 159.02 526.715 157.402C526.69 155.784 525.359 154.492 523.741 154.516C522.123 154.54 520.831 155.871 520.855 157.489C520.88 159.107 522.211 160.399 523.829 160.375Z" fill="#DBDBDB"/>
<path d="M549.38 433.9H387.38V451.9H549.38V433.9Z" fill="#F5F5F5"/>
<path d="M585.38 469.9H351.38V487.9H585.38V469.9Z" fill="#F5F5F5"/>
<path d="M493.25 569.01V613.52H255.88V628.25C255.88 628.782 255.744 629.306 255.485 629.771C255.226 630.236 254.852 630.627 254.399 630.907C253.946 631.186 253.429 631.345 252.897 631.369C252.365 631.392 251.836 631.279 251.36 631.04L182.56 596.64C182 596.36 181.527 595.933 181.192 595.404C180.856 594.876 180.671 594.266 180.656 593.64C180.64 593.014 180.795 592.396 181.104 591.852C181.413 591.307 181.865 590.857 182.41 590.55L252.41 551.17C252.759 550.974 253.152 550.874 253.552 550.878C253.952 550.881 254.344 550.99 254.689 551.192C255.033 551.394 255.319 551.683 255.518 552.03C255.716 552.377 255.82 552.77 255.82 553.17L255.6 568.7L493.25 569.01Z" fill="#3AD29F"/>
<path d="M569.51 569.01V613.52H806.88V628.25C806.88 628.782 807.016 629.306 807.275 629.771C807.534 630.236 807.908 630.627 808.361 630.907C808.814 631.186 809.331 631.345 809.863 631.369C810.395 631.392 810.924 631.279 811.4 631.04L880.2 596.64C880.76 596.36 881.233 595.933 881.568 595.404C881.904 594.876 882.089 594.266 882.104 593.64C882.12 593.014 881.965 592.396 881.656 591.852C881.347 591.307 880.895 590.857 880.35 590.55L810.35 551.17C810.001 550.974 809.608 550.874 809.208 550.878C808.808 550.881 808.416 550.99 808.071 551.192C807.727 551.394 807.441 551.683 807.242 552.03C807.044 552.377 806.94 552.77 806.94 553.17L807.16 568.7L569.51 569.01Z" fill="#3AD29F"/>
<g opacity="0.5">
<path opacity="0.5" d="M531.38 640.9C561.203 640.9 585.38 616.723 585.38 586.9C585.38 557.077 561.203 532.9 531.38 532.9C501.557 532.9 477.38 557.077 477.38 586.9C477.38 616.723 501.557 640.9 531.38 640.9Z" fill="url(#paint6_linear)"/>
</g>
<path d="M531.38 631.9C556.233 631.9 576.38 611.753 576.38 586.9C576.38 562.047 556.233 541.9 531.38 541.9C506.527 541.9 486.38 562.047 486.38 586.9C486.38 611.753 506.527 631.9 531.38 631.9Z" fill="#6C63FF"/>
<path d="M147.069 227.203L138.464 131.952C161.273 124.509 171.724 118.376 197.197 131.155C217.575 141.378 225.617 164.193 227.091 174.322L147.069 227.203Z" fill="#F2CD4A"/>
<path d="M134.353 126.71L136.119 139.23C163.852 126.861 185.312 129.416 191.352 134.798C213.311 138.35 221.131 168.794 223.52 181.013L233.753 174.23C226.082 128.291 196.827 123.345 196.827 123.345C175.948 113.363 147.658 119.897 134.353 126.71Z" fill="#C66E07"/>
<circle cx="162.403" cy="146.682" r="10.5833" transform="rotate(25.5507 162.403 146.682)" fill="#C74B4B"/>
<circle cx="192.721" cy="172.606" r="10.5833" transform="rotate(25.5507 192.721 172.606)" fill="#C74B4B"/>
<circle cx="162.622" cy="186.49" r="10.5833" transform="rotate(25.5507 162.622 186.49)" fill="#C74B4B"/>
<path d="M524 274H456V339H524V274Z" fill="#354637"/>
<rect width="81" height="62" transform="matrix(-1 0 0 1 486 274)" fill="#213423"/>
<ellipse rx="40.5" ry="19" transform="matrix(-1 0 0 1 445.5 339)" fill="#213423"/>
<ellipse rx="40.5" ry="18.5" transform="matrix(-1 0 0 1 445.5 272.5)" fill="white"/>
<path d="M446.293 260.095C436.196 260.197 428.058 264.879 428.115 270.552C428.172 276.226 436.403 280.742 446.5 280.641C456.597 280.539 464.736 275.858 464.679 270.184C464.622 264.511 456.39 259.994 446.293 260.095Z" fill="#DB5F57"/>
<path d="M524.235 338.463C532.526 338.376 539.094 323.842 538.906 306C538.718 288.158 531.845 273.765 523.554 273.853C515.263 273.94 508.695 288.475 508.883 306.316C509.071 324.158 515.944 338.551 524.235 338.463Z" fill="white"/>
<path d="M519.718 305.5C519.718 312.68 522.852 318.5 526.718 318.5C530.584 318.5 533.718 312.68 533.718 305.5C533.718 298.32 530.584 292.5 526.718 292.5C522.852 292.5 519.718 298.32 519.718 305.5Z" fill="#DB5F57"/>
<path d="M721 180V192H815V180H721Z" fill="#7C1E1E" stroke="black"/>
<path d="M719.324 184.066C713.304 180.563 716.816 177.229 719.324 176H816.43C820.396 180.993 817.693 189.597 798.466 184.066C779.239 178.535 766.178 181.761 759.138 184.066C748.375 185.525 725.345 187.569 719.324 184.066Z" fill="#A0E557"/>
<path d="M720.747 175.987C713.961 172.866 717.919 169.485 720.747 168.185C750.237 167.291 810.573 166.039 816.002 168.185C821.431 170.33 818.264 174.28 816.002 175.987H806.792C803.883 179.482 797.339 186.374 794.43 185.984C791.522 185.594 784.17 179.157 780.857 175.987C763.648 177.288 727.534 179.108 720.747 175.987Z" fill="#FCCF3F"/>
<path d="M723.414 168.892C720.318 168.696 719.867 163.424 720.028 160.812C750.903 158.69 813.038 155.719 814.586 160.812C816.133 165.905 812.974 168.321 811.2 168.892C783.228 168.973 726.509 169.088 723.414 168.892Z" fill="#FC4E51"/>
<path d="M730.531 130.393C717.169 135.422 714.636 153.442 715.039 161.824C715.069 163.565 717.149 164 718.186 164H813.312C818.54 164 819.686 162.549 819.605 161.824C820.815 156.344 819.944 142.385 806.777 130.393C765.87 115.16 747.232 124.106 730.531 130.393Z" fill="#EF8A30" stroke="#EFA335"/>
<path d="M731.767 218.272C718.36 215.143 714.361 201.811 714.037 195.537C713.506 192.016 718.835 191.299 721.566 191.381C752.413 190.81 815.223 190.452 819.692 193.581C822.218 208.64 808.6 216.316 801.475 218.272C783.826 219.576 745.175 221.401 731.767 218.272Z" fill="#EF8A30"/>
<ellipse rx="1.45433" ry="5.09014" transform="matrix(-0.102452 -0.994738 -0.994738 0.102452 740.881 142.42)" fill="#F5B175"/>
<ellipse rx="1.45433" ry="5.09014" transform="matrix(0.0323255 -0.999477 -0.999477 -0.0323255 757.728 132.026)" fill="#F5B175"/>
<ellipse rx="1.45433" ry="5.09014" transform="matrix(0.0323255 -0.999477 -0.999477 -0.0323255 773.163 143.311)" fill="#F5B175"/>
<ellipse rx="1.45433" ry="5.09014" transform="matrix(0.0213387 -0.999772 -0.999772 -0.0213387 784.955 132.732)" fill="#F5B175"/>
<ellipse rx="1.45433" ry="5.09014" transform="matrix(0.248509 -0.968629 -0.968629 -0.248509 803.377 143.396)" fill="#F5B175"/>
</g>
<defs>
<linearGradient id="paint0_linear" x1="623.647" y1="661.284" x2="906.534" y2="-11.2888" gradientUnits="userSpaceOnUse">
<stop stop-color="#808080" stop-opacity="0.25"/>
<stop offset="0.54" stop-color="#808080" stop-opacity="0.12"/>
<stop offset="1" stop-color="#808080" stop-opacity="0.1"/>
</linearGradient>
<linearGradient id="paint1_linear" x1="183143" y1="68991.5" x2="183143" y2="27124.6" gradientUnits="userSpaceOnUse">
<stop stop-color="#808080" stop-opacity="0.25"/>
<stop offset="0.54" stop-color="#808080" stop-opacity="0.12"/>
<stop offset="1" stop-color="#808080" stop-opacity="0.1"/>
</linearGradient>
<linearGradient id="paint2_linear" x1="140506" y1="471495" x2="-107774" y2="145589" gradientUnits="userSpaceOnUse">
<stop stop-color="#808080" stop-opacity="0.25"/>
<stop offset="0.54" stop-color="#808080" stop-opacity="0.12"/>
<stop offset="1" stop-color="#808080" stop-opacity="0.1"/>
</linearGradient>
<linearGradient id="paint3_linear" x1="52247.4" y1="68991.5" x2="52247.4" y2="27124.6" gradientUnits="userSpaceOnUse">
<stop stop-color="#808080" stop-opacity="0.25"/>
<stop offset="0.54" stop-color="#808080" stop-opacity="0.12"/>
<stop offset="1" stop-color="#808080" stop-opacity="0.1"/>
</linearGradient>
<linearGradient id="paint4_linear" x1="169876" y1="553580" x2="418150" y2="227669" gradientUnits="userSpaceOnUse">
<stop stop-color="#808080" stop-opacity="0.25"/>
<stop offset="0.54" stop-color="#808080" stop-opacity="0.12"/>
<stop offset="1" stop-color="#808080" stop-opacity="0.1"/>
</linearGradient>
<linearGradient id="paint5_linear" x1="123078" y1="94487" x2="123078" y2="52620" gradientUnits="userSpaceOnUse">
<stop stop-color="#808080" stop-opacity="0.25"/>
<stop offset="0.54" stop-color="#808080" stop-opacity="0.12"/>
<stop offset="1" stop-color="#808080" stop-opacity="0.1"/>
</linearGradient>
<linearGradient id="paint6_linear" x1="57866.4" y1="69750.1" x2="57866.4" y2="58086.1" gradientUnits="userSpaceOnUse">
<stop stop-color="#808080" stop-opacity="0.25"/>
<stop offset="0.54" stop-color="#808080" stop-opacity="0.12"/>
<stop offset="1" stop-color="#808080" stop-opacity="0.1"/>
</linearGradient>
<clipPath id="clip0">
<rect width="945.76" height="774.02" fill="white"/>
</clipPath>
</defs>
</svg>
