<svg width="824" height="1296" viewBox="0 0 824 1296" fill="none" xmlns="http://www.w3.org/2000/svg">
<rect y="472" width="824" height="824" fill="#EDEDED"/>
<g clip-path="url(#clip0)">
<path d="M715.72 725.404H108.72C106.408 725.406 104.191 726.325 102.556 727.96C100.921 729.595 100.002 731.812 100 734.124V1145.44C100.002 1147.76 100.921 1149.97 102.556 1151.61C104.191 1153.24 106.408 1154.16 108.72 1154.16H715.72C716.98 1154.16 718.226 1153.89 719.371 1153.36C720.516 1152.83 721.532 1152.06 722.35 1151.1C722.419 1151.03 722.483 1150.95 722.54 1150.86C723.061 1150.23 723.482 1149.52 723.79 1148.75C724.229 1147.71 724.453 1146.58 724.45 1145.44V734.124C724.447 731.81 723.526 729.592 721.889 727.957C720.252 726.322 718.033 725.404 715.72 725.404V725.404ZM721.96 1145.44C721.961 1146.66 721.603 1147.85 720.93 1148.86C720.332 1149.76 719.521 1150.48 718.57 1150.98C717.689 1151.44 716.711 1151.68 715.72 1151.67H108.72C107.068 1151.67 105.485 1151.01 104.317 1149.85C103.149 1148.68 102.492 1147.1 102.49 1145.44V734.124C102.492 732.472 103.149 730.889 104.317 729.721C105.485 728.553 107.068 727.896 108.72 727.894H715.72C717.373 727.894 718.959 728.55 720.129 729.718C721.299 730.886 721.957 732.471 721.96 734.124V1145.44Z" fill="#3F3D56"/>
<path d="M723.199 760.353H101.243V762.846H723.199V760.353Z" fill="#3F3D56"/>
<path d="M122.432 751.578C126.562 751.578 129.91 748.23 129.91 744.1C129.91 739.97 126.562 736.621 122.432 736.621C118.301 736.621 114.953 739.97 114.953 744.1C114.953 748.23 118.301 751.578 122.432 751.578Z" fill="#3F3D56"/>
<path d="M143.932 751.578C148.062 751.578 151.41 748.23 151.41 744.1C151.41 739.97 148.062 736.621 143.932 736.621C139.802 736.621 136.454 739.97 136.454 744.1C136.454 748.23 139.802 751.578 143.932 751.578Z" fill="#3F3D56"/>
<path d="M165.433 751.578C169.563 751.578 172.911 748.23 172.911 744.1C172.911 739.97 169.563 736.621 165.433 736.621C161.302 736.621 157.954 739.97 157.954 744.1C157.954 748.23 161.302 751.578 165.433 751.578Z" fill="#3F3D56"/>
<path d="M376.977 972.274C369.498 967.405 365.778 956.09 367.61 945.742C369.443 935.394 376.345 926.481 384.618 922.638C388.642 920.824 393.055 920.038 397.458 920.351C401.861 920.664 406.118 922.066 409.846 924.431C417.433 929.07 428.163 931.611 431.766 940.893C434.535 948.026 431.023 962.511 427.296 969.439C424.076 975.427 417.955 978.167 412.205 979.357C405.843 980.654 399.278 980.57 392.951 979.11C386.625 977.651 380.686 974.849 375.536 970.896L376.977 972.274Z" fill="#2F2E41"/>
<path d="M373.076 1027.23L367.096 1037.54L366.306 1038.9L365.156 1040.9H347.526L348.716 1038.9L351.796 1033.71L358.976 1021.59L367.106 1024.84L373.076 1027.23Z" fill="#FFB8B8"/>
<path d="M346.206 1040.9L342.986 1038.9L342.586 1038.65L362.796 1001.82C363.665 1000.23 364.842 998.824 366.258 997.687C367.674 996.551 369.301 995.707 371.046 995.204C373.248 994.548 375.581 994.462 377.826 994.954C379.136 995.23 380.396 995.702 381.566 996.354C382.047 996.618 382.512 996.912 382.956 997.234C384.665 998.432 386.069 1000.01 387.056 1001.85C388.23 1004.01 388.811 1006.43 388.737 1008.89C388.663 1011.34 387.938 1013.73 386.636 1015.8L378.846 1028.25L372.186 1038.9L370.936 1040.9H346.206V1040.9Z" fill="#2F2E41"/>
<path d="M398.13 985.345C411.695 985.345 422.691 974.349 422.691 960.784C422.691 947.219 411.695 936.223 398.13 936.223C384.565 936.223 373.569 947.219 373.569 960.784C373.569 974.349 384.565 985.345 398.13 985.345Z" fill="#FFB8B8"/>
<path d="M422.786 1040.9H367.576L367.826 1040.19C367.686 1039.76 367.556 1039.33 367.436 1038.9C367.306 1038.45 367.196 1037.99 367.096 1037.54C366.199 1033.36 366.202 1029.03 367.106 1024.84C370.156 1009.86 382.326 997.694 382.326 997.694C382.536 997.534 382.746 997.384 382.956 997.234C384.766 995.908 386.731 994.807 388.806 993.954C397.846 990.204 407.326 991.714 413.696 993.654C415.914 994.325 418.083 995.15 420.186 996.124C420.926 996.474 421.326 996.694 421.326 996.694L421.956 1015.9L422.716 1038.9L422.786 1040.9Z" fill="#F2994A"/>
<path d="M448.326 1038.9L444.106 1017.44L439.846 995.804C439.669 994.91 439.225 994.091 438.573 993.454C437.922 992.817 437.093 992.392 436.196 992.234L427.276 990.694L418.976 989.264C418.175 989.12 417.351 989.197 416.591 989.488C415.831 989.779 415.166 990.272 414.666 990.914C414.042 991.691 413.7 992.657 413.696 993.654C413.696 994.269 413.822 994.879 414.066 995.444C418.396 1005.54 418.476 1021.53 417.376 1038.9C417.326 1039.56 417.286 1040.23 417.236 1040.9H448.726L448.326 1038.9Z" fill="#2F2E41"/>
<path d="M388.806 993.954C388.623 993.226 388.261 992.555 387.754 992.002C387.246 991.449 386.61 991.03 385.9 990.784C385.191 990.538 384.432 990.473 383.691 990.593C382.95 990.713 382.251 991.016 381.656 991.474L377.826 994.954L362.146 1009.23C361.657 1009.67 361.274 1010.22 361.026 1010.82C359.256 1015.05 355.806 1023.4 351.796 1033.71C351.146 1035.39 350.476 1037.12 349.786 1038.9C349.546 1039.56 349.286 1040.23 349.026 1040.9H374.866C375.076 1040.23 375.286 1039.56 375.496 1038.9C376.646 1035.27 377.766 1031.71 378.846 1028.25C382.006 1018.2 384.856 1009.07 387.056 1001.85C387.666 999.854 388.223 998.007 388.726 996.314C388.961 995.548 388.989 994.734 388.806 993.954V993.954Z" fill="#2F2E41"/>
<path d="M454.126 1040.9H455.796L455.566 1040.34L454.956 1038.9L445.546 1016.57L444.106 1017.44L432.546 1024.43L438.476 1038.9L439.296 1040.9H448.726H454.126Z" fill="#FFB8B8"/>
<path d="M444.586 998.864C443.313 995.531 440.8 992.82 437.574 991.297C434.348 989.775 430.658 989.558 427.276 990.694C426.844 990.837 426.42 991.004 426.006 991.194C423.637 992.251 421.618 993.961 420.186 996.124C419.602 996.987 419.122 997.917 418.756 998.894C418.107 1000.59 417.8 1002.4 417.854 1004.21C417.907 1006.02 418.319 1007.81 419.066 1009.46L421.956 1015.9L432.296 1038.9L433.196 1040.9H454.126L455.566 1040.34L459.306 1038.9L459.826 1038.7L444.586 998.864Z" fill="#2F2E41"/>
<path d="M417.42 932.576C418.276 932.832 419.193 932.799 420.029 932.482C420.864 932.165 421.572 931.582 422.042 930.822C422.488 930.047 422.75 929.181 422.808 928.289C422.867 927.398 422.721 926.504 422.381 925.678C421.684 924.029 420.585 922.58 419.185 921.464C417.596 920.025 415.66 919.023 413.568 918.555C412.522 918.33 411.441 918.333 410.397 918.562C409.352 918.792 408.37 919.243 407.515 919.886C406.676 920.55 406.054 921.449 405.729 922.468C405.403 923.488 405.39 924.581 405.689 925.608C406.325 927.453 408.048 928.688 409.768 929.609C413.181 931.431 416.945 932.501 420.806 932.747L417.42 932.576Z" fill="#2F2E41"/>
<path d="M422.198 960.051C418.25 960.595 418.757 958.585 417.175 954.926C415.594 951.267 413.477 946.924 409.508 946.553C406.256 946.25 403.576 948.85 400.941 950.781C396.245 954.222 389.915 955.906 384.472 953.842C379.028 951.777 375.245 945.289 377.31 939.846C377.953 938.343 378.898 936.988 380.086 935.864C381.274 934.741 382.68 933.874 384.217 933.316C387.3 932.22 390.574 931.766 393.839 931.98C401.101 932.212 408.223 934.035 414.703 937.321C419.175 939.593 423.529 942.844 425.226 947.565C426.922 952.285 428.039 958.919 423.188 960.196L422.198 960.051Z" fill="#2F2E41"/>
<path d="M415.402 919.591C413.45 916.194 415.061 911.532 418.255 909.262C421.448 906.992 425.732 906.769 429.543 907.68C433.312 908.629 436.765 910.553 439.555 913.258C442.346 915.963 444.377 919.354 445.443 923.091C447.06 929.032 446.099 935.414 447.469 941.417C448.199 944.617 449.576 947.634 451.516 950.281C453.456 952.929 455.917 955.151 458.748 956.812C461.58 958.473 464.721 959.536 467.979 959.937C471.236 960.337 474.542 960.067 477.691 959.142C481.793 957.938 485.962 955.009 486.365 950.753C486.79 955.64 485.675 960.538 483.178 964.761C480.68 968.984 476.925 972.32 472.437 974.302C467.152 976.506 461.257 976.65 455.532 976.503C451.801 976.408 447.986 976.183 444.544 974.74C442.163 973.654 440.023 972.103 438.248 970.179C436.474 968.256 435.101 965.997 434.211 963.536C432.459 958.589 431.986 953.279 432.835 948.101C433.399 944.072 434.519 940.124 434.832 936.069C435.146 932.013 434.551 927.683 432.051 924.475C429.551 921.266 424.775 919.627 421.221 921.605C419.792 922.399 418.64 923.697 417.088 924.21C415.535 924.723 413.336 923.822 413.477 922.193L415.402 919.591Z" fill="#2F2E41"/>
<path d="M583.006 1040.9L583.196 1038.9L588.836 980.224C590.685 978.776 592.671 977.513 594.766 976.454C606.376 970.604 617.576 973.404 623.636 975.824C625.242 976.452 626.794 977.212 628.276 978.094L631.576 1038.9L631.686 1040.9H583.006Z" fill="#F2994A"/>
<path d="M609.419 964.606C622.984 964.606 633.98 953.61 633.98 940.045C633.98 926.481 622.984 915.484 609.419 915.484C595.854 915.484 584.858 926.481 584.858 940.045C584.858 953.61 595.854 964.606 609.419 964.606Z" fill="#FFB8B8"/>
<path d="M629.347 955.021C631.173 953.097 632.385 950.674 632.829 948.059C633.273 945.444 632.93 942.756 631.842 940.337C630.754 937.918 628.972 935.877 626.721 934.474C624.47 933.071 621.853 932.369 619.202 932.457C615.806 932.571 612.605 933.961 609.364 934.981C604.452 936.652 599.211 937.124 594.079 936.357C588.916 935.556 584.258 932.805 581.063 928.671C578.024 924.495 577.076 918.702 579.223 914.004C581.701 908.581 587.49 905.592 592.937 903.164C595.133 902.065 597.479 901.294 599.899 900.877C601.111 900.675 602.353 900.727 603.544 901.027C604.736 901.327 605.853 901.871 606.825 902.623C608.356 903.939 609.253 905.918 610.918 907.058C612.793 908.342 615.228 908.309 617.489 908.535C622.582 909.045 627.399 911.093 631.299 914.407C635.199 917.721 637.998 922.144 639.323 927.088C640.649 932.032 640.437 937.262 638.718 942.083C636.998 946.903 633.852 951.086 629.697 954.075L629.347 955.021Z" fill="#2F2E41"/>
<path d="M598.426 986.614L594.766 976.454L594.538 975.82C594.429 975.52 594.254 975.248 594.025 975.026C593.796 974.803 593.52 974.636 593.217 974.536C592.914 974.436 592.592 974.406 592.275 974.449C591.959 974.492 591.657 974.607 591.391 974.784L587.236 977.554C587.236 977.554 560.586 977.554 558.446 993.544C558.416 993.794 558.376 994.074 558.346 994.374C558.345 994.387 558.341 994.401 558.336 994.414C558.066 995.464 553.036 1014.9 548.716 1038.9C548.596 1039.56 548.476 1040.23 548.356 1040.9H606.266V1040.9C608.15 1016.79 607.096 994.379 598.426 986.614Z" fill="#2F2E41"/>
<path d="M667.506 1038.9C664.346 1014.28 659.826 994.374 659.826 994.374C659.786 994.074 659.746 993.794 659.716 993.544C657.586 977.554 630.936 977.554 630.936 977.554L626.783 974.785C626.518 974.608 626.215 974.494 625.899 974.451C625.582 974.408 625.26 974.438 624.957 974.538C624.653 974.638 624.377 974.806 624.148 975.028C623.919 975.251 623.744 975.523 623.636 975.824L619.746 986.614C611.076 994.379 610.022 1016.79 611.906 1040.9L611.906 1040.9H667.756C667.676 1040.23 667.586 1039.56 667.506 1038.9Z" fill="#2F2E41"/>
<path d="M198.426 982.844L192.486 1038.9L192.276 1040.9H176.206C176.396 1040.25 176.586 1039.58 176.786 1038.9C181.346 1023.26 187.556 1000.43 186.886 994.384C185.836 984.944 193.186 981.794 193.186 981.794L193.646 981.884L198.426 982.844Z" fill="#F2994A"/>
<path d="M224.343 965.54C237.907 965.54 248.904 954.544 248.904 940.979C248.904 927.414 237.907 916.418 224.343 916.418C210.778 916.418 199.781 927.414 199.781 940.979C199.781 954.544 210.778 965.54 224.343 965.54Z" fill="#A0616A"/>
<path d="M256.136 1029C254.897 1031.29 253.883 1033.69 253.106 1036.16C252.816 1037.04 252.536 1037.96 252.276 1038.9C252.086 1039.55 251.916 1040.22 251.746 1040.9H186.966C187.056 1040.24 187.136 1039.57 187.226 1038.9C190.536 1012.75 193.216 986.214 193.646 981.884C193.686 981.474 193.706 981.264 193.706 981.264C232.526 960.804 260.856 987.564 260.856 987.564C260.856 987.564 260.896 987.754 260.956 988.124C261.576 991.864 264.736 1013.7 256.136 1029Z" fill="#F2994A"/>
<path d="M253.106 1036.16L248.786 1026.9L249.836 990.184L260.956 988.124L261.346 988.054C267.094 991.395 271.542 996.583 273.966 1002.77C276.126 1008.17 280.236 1024.41 283.706 1038.9C283.866 1039.57 284.026 1040.24 284.186 1040.9H255.316L254.386 1038.9L253.106 1036.16Z" fill="#F2994A"/>
<path d="M292.616 875.904H150.596C147.55 875.907 144.63 877.119 142.475 879.273C140.321 881.427 139.11 884.348 139.106 887.394V1029.41C139.11 1032.46 140.321 1035.38 142.475 1037.53C144.63 1039.69 147.55 1040.9 150.596 1040.9H292.616C295.663 1040.9 298.584 1039.69 300.739 1037.54C302.893 1035.38 304.104 1032.46 304.106 1029.41V887.394C304.104 884.347 302.893 881.426 300.739 879.271C298.584 877.117 295.663 875.906 292.616 875.904ZM302.106 1029.41C302.104 1031.93 301.103 1034.34 299.324 1036.12C297.545 1037.9 295.132 1038.9 292.616 1038.9H150.596C148.08 1038.9 145.669 1037.9 143.89 1036.12C142.111 1034.34 141.11 1031.93 141.106 1029.41V887.394C141.11 884.878 142.111 882.466 143.89 880.688C145.669 878.909 148.08 877.908 150.596 877.904H292.616C295.132 877.906 297.545 878.906 299.324 880.686C301.103 882.465 302.104 884.878 302.106 887.394V1029.41ZM192.486 1038.9L192.276 1040.9H251.746C251.916 1040.22 252.086 1039.55 252.276 1038.9H192.486Z" fill="#3F3D56"/>
<path d="M483.226 875.904H341.206C338.16 875.907 335.239 877.119 333.085 879.273C330.931 881.427 329.72 884.348 329.716 887.394V1029.41C329.72 1032.46 330.931 1035.38 333.085 1037.53C335.239 1039.69 338.16 1040.9 341.206 1040.9H483.226C486.273 1040.9 489.194 1039.69 491.348 1037.54C493.503 1035.38 494.714 1032.46 494.716 1029.41V887.394C494.714 884.347 493.503 881.426 491.348 879.271C489.194 877.117 486.273 875.906 483.226 875.904V875.904ZM492.716 1029.41C492.714 1031.93 491.713 1034.34 489.934 1036.12C488.155 1037.9 485.742 1038.9 483.226 1038.9H341.206C338.69 1038.9 336.279 1037.9 334.5 1036.12C332.721 1034.34 331.72 1031.93 331.716 1029.41V887.394C331.72 884.878 332.721 882.466 334.5 880.688C336.279 878.909 338.69 877.908 341.206 877.904H483.226C485.742 877.906 488.155 878.906 489.934 880.686C491.713 882.465 492.714 884.878 492.716 887.394V1029.41ZM367.436 1038.9C367.556 1039.33 367.686 1039.76 367.826 1040.19L367.576 1040.9H417.236C417.286 1040.23 417.326 1039.56 417.376 1038.9H367.436Z" fill="#3F3D56"/>
<path d="M673.846 875.904H531.826C528.779 875.906 525.858 877.117 523.703 879.271C521.549 881.426 520.338 884.347 520.336 887.394V1029.41C520.338 1032.46 521.549 1035.38 523.703 1037.54C525.858 1039.69 528.779 1040.9 531.826 1040.9H673.846C676.892 1040.9 679.813 1039.69 681.967 1037.53C684.121 1035.38 685.332 1032.46 685.336 1029.41V887.394C685.332 884.348 684.121 881.427 681.967 879.273C679.813 877.119 676.892 875.908 673.846 875.904ZM683.336 1029.41C683.332 1031.93 682.331 1034.34 680.552 1036.12C678.773 1037.9 676.362 1038.9 673.846 1038.9H531.826C529.31 1038.9 526.897 1037.9 525.118 1036.12C523.339 1034.34 522.338 1031.93 522.336 1029.41V887.394C522.338 884.878 523.339 882.465 525.118 880.686C526.897 878.906 529.31 877.906 531.826 877.904H673.846C676.362 877.908 678.773 878.909 680.552 880.688C682.331 882.466 683.332 884.878 683.336 887.394V1029.41ZM606.416 1038.9C606.366 1039.56 606.316 1040.23 606.266 1040.9H649.356C649.436 1040.24 649.526 1039.57 649.606 1038.9H606.416Z" fill="#3F3D56"/>
<path d="M577.221 1098.9H247.221C245.099 1098.9 243.064 1098.06 241.564 1096.56C240.064 1095.06 239.221 1093.03 239.221 1090.9C239.221 1088.78 240.064 1086.75 241.564 1085.25C243.064 1083.75 245.099 1082.9 247.221 1082.9H577.221C579.343 1082.9 581.378 1083.75 582.878 1085.25C584.378 1086.75 585.221 1088.78 585.221 1090.9C585.221 1093.03 584.378 1095.06 582.878 1096.56C581.378 1098.06 579.343 1098.9 577.221 1098.9Z" fill="#CCCCCC"/>
<path d="M484.721 833.904H339.721C337.599 833.904 335.564 833.061 334.064 831.561C332.564 830.06 331.721 828.026 331.721 825.904C331.721 823.782 332.564 821.747 334.064 820.247C335.564 818.747 337.599 817.904 339.721 817.904H484.721C486.843 817.904 488.878 818.747 490.378 820.247C491.878 821.747 492.721 823.782 492.721 825.904C492.721 828.026 491.878 830.06 490.378 831.561C488.878 833.061 486.843 833.904 484.721 833.904Z" fill="#F2994A"/>
<path d="M236.091 962.378C236.922 963.198 238.022 963.691 239.188 963.765C240.353 963.84 241.507 963.492 242.436 962.784C248.225 958.493 253.307 953.152 256.314 946.638C259.76 939.173 260.145 930.012 255.99 922.917C252.478 916.92 246.275 913.049 240.094 909.871C237.694 908.517 235.109 907.52 232.42 906.914C229.703 906.314 226.859 906.773 224.469 908.197C223.299 908.93 222.378 909.999 221.824 911.264C221.271 912.529 221.112 913.931 221.368 915.287C218.399 911.9 214.596 909.347 210.336 907.882C207.654 906.832 204.717 906.619 201.911 907.271C197.988 908.384 195.125 911.869 193.558 915.633C192.292 918.497 191.854 921.658 192.296 924.758C192.528 926.301 193.082 927.777 193.921 929.092C194.76 930.407 195.866 931.532 197.166 932.393C200.41 934.399 204.547 934.255 208.272 933.435C211.996 932.615 215.601 931.189 219.398 930.829C223.195 930.468 227.422 931.415 229.733 934.449C231.36 936.585 231.778 939.377 232.143 942.038L234.043 955.877C234.198 957.879 234.71 959.837 235.553 961.66C235.699 961.922 235.88 962.164 236.091 962.378Z" fill="#2F2E41"/>
</g>
<defs>
<clipPath id="clip0">
<rect width="624.45" height="614.164" fill="white" transform="translate(100 540)"/>
</clipPath>
</defs>
</svg>
