<?xml version="1.0" standalone="no"?>
<!DOCTYPE svg PUBLIC "-//W3C//DTD SVG 20010904//EN"
 "http://www.w3.org/TR/2001/REC-SVG-20010904/DTD/svg10.dtd">
<svg version="1.0" xmlns="http://www.w3.org/2000/svg"
 width="223.000000pt" height="269.000000pt" viewBox="0 0 223.000000 269.000000"
 preserveAspectRatio="xMidYMid meet">

<g transform="translate(0.000000,269.000000) scale(0.100000,-0.100000)"
fill="#ffffff" stroke="none">
<path d="M1080 2680 c-146 -23 -223 -77 -280 -195 -43 -88 -53 -172 -45 -375
6 -156 4 -183 -14 -251 -25 -98 -66 -177 -131 -259 -189 -233 -295 -462 -307
-660 -6 -93 -7 -96 -47 -146 -33 -41 -57 -59 -118 -87 -109 -50 -121 -71 -113
-200 4 -74 2 -115 -10 -166 -15 -61 -15 -71 -1 -105 21 -49 68 -69 221 -90 95
-14 140 -26 215 -58 80 -35 108 -42 181 -46 108 -5 147 7 196 62 38 42 39 43
151 61 78 12 138 16 195 12 198 -15 237 -20 237 -32 0 -25 61 -95 101 -116 34
-17 55 -20 113 -17 95 5 149 33 250 131 63 60 105 89 188 132 182 94 198 143
94 280 -19 25 -39 66 -46 97 -17 76 -46 133 -76 148 -23 13 -24 17 -17 54 4
23 8 91 8 151 0 89 -5 123 -24 180 -48 141 -116 257 -246 420 -169 213 -181
244 -189 505 -6 208 -21 294 -66 387 -71 143 -231 213 -420 183z m209 -389
c52 -37 66 -68 66 -145 0 -51 -5 -79 -17 -98 -16 -25 -21 -26 -49 -16 -23 8
-28 14 -23 27 4 9 9 35 12 59 11 113 -93 126 -114 14 -6 -30 -9 -33 -33 -27
-39 10 -43 18 -36 69 9 59 40 106 85 129 39 19 71 16 109 -12z m-339 -29 c27
-28 50 -85 50 -127 0 -14 -10 -24 -30 -32 -30 -11 -30 -11 -30 21 0 42 -33 75
-58 60 -23 -15 -28 -88 -8 -119 13 -20 13 -25 1 -35 -31 -26 -68 40 -68 121 0
117 77 177 143 111z m205 -193 c33 -17 84 -40 114 -51 65 -25 91 -49 91 -86 0
-36 -39 -76 -108 -111 -32 -16 -79 -41 -107 -56 -41 -22 -60 -26 -105 -23 -50
4 -63 10 -138 67 -89 68 -107 91 -98 126 6 23 111 114 171 147 47 27 111 22
180 -13z m220 -242 c15 -69 91 -260 171 -429 47 -98 97 -221 111 -273 26 -90
28 -95 54 -95 30 0 33 6 44 76 14 92 -35 237 -113 332 -57 70 -48 78 12 11 90
-100 156 -279 143 -389 l-6 -49 54 -30 c72 -41 105 -78 105 -118 0 -18 -4 -33
-10 -33 -5 0 -10 11 -10 24 0 52 -142 136 -229 136 -46 0 -78 -22 -86 -60 -4
-19 -17 -36 -35 -45 -59 -31 -91 -120 -105 -290 -4 -44 -13 -107 -22 -141 -14
-58 -17 -62 -68 -91 -92 -53 -163 -75 -261 -80 -149 -9 -255 31 -324 123 l-39
52 27 7 c84 21 82 95 -3 201 -18 22 -76 71 -129 108 -53 38 -111 86 -130 107
-89 104 -75 275 41 487 24 46 47 82 49 79 3 -2 -16 -46 -41 -98 -76 -158 -89
-275 -43 -379 l21 -45 17 97 c23 126 29 143 115 333 80 178 129 316 146 412
l11 63 41 -30 c23 -17 54 -40 69 -52 19 -15 45 -23 85 -26 54 -3 65 0 168 53
61 31 119 65 129 75 24 24 33 19 41 -23z m-902 -1002 c28 -18 61 -67 127 -190
24 -44 79 -127 122 -184 98 -129 118 -167 118 -227 0 -56 -23 -98 -70 -127
-29 -18 -50 -22 -120 -22 -77 1 -94 5 -180 42 -96 41 -156 56 -265 68 -160 17
-189 51 -150 180 13 41 14 63 5 123 -19 120 -1 153 102 192 46 17 69 35 122
95 80 89 116 98 189 50z m1186 -89 c26 -26 39 -31 74 -30 46 1 126 35 154 66
20 22 82 24 123 3 29 -15 45 -50 71 -148 6 -26 26 -67 44 -90 37 -49 65 -100
65 -120 0 -24 -52 -63 -150 -113 -71 -36 -116 -69 -181 -129 -108 -102 -161
-130 -250 -130 -56 0 -71 4 -102 28 -78 59 -86 132 -37 312 17 61 35 159 40
219 13 143 26 190 63 229 l30 32 12 -49 c8 -29 25 -60 44 -80z"/>
<path d="M980 2050 c-8 -5 -12 -12 -9 -15 8 -8 39 5 39 16 0 11 -11 11 -30 -1z"/>
<path d="M1080 2051 c0 -5 9 -11 20 -14 24 -6 27 8 4 17 -21 8 -24 8 -24 -3z"/>
<path d="M1246 1924 c-52 -45 -140 -86 -198 -92 -58 -5 -142 31 -183 80 -14
17 -28 28 -31 26 -10 -11 46 -65 96 -92 70 -38 146 -34 240 12 73 36 154 103
123 102 -5 -1 -26 -16 -47 -36z"/>
</g>
</svg>
