<svg width="1285" height="1285" viewBox="0 0 1285 1285" fill="none" xmlns="http://www.w3.org/2000/svg">
<rect width="1285" height="1285" fill="#B98C65"/>
<g clip-path="url(#clip0)">
<path d="M670.375 1092.37C973.786 1092.37 1219.75 1078.22 1219.75 1060.77C1219.75 1043.32 973.786 1029.18 670.375 1029.18C366.964 1029.18 121 1043.32 121 1060.77C121 1078.22 366.964 1092.37 670.375 1092.37Z" fill="#F2F2F2"/>
<path d="M1121.29 460H295.968V486.257H1121.29V460Z" fill="#F2F2F2"/>
<path d="M318.053 479.537C321.806 479.537 324.848 476.495 324.848 472.742C324.848 468.988 321.806 465.946 318.053 465.946C314.3 465.946 311.257 468.988 311.257 472.742C311.257 476.495 314.3 479.537 318.053 479.537Z" fill="#F2994A"/>
<path d="M340.138 479.537C343.891 479.537 346.933 476.495 346.933 472.742C346.933 468.988 343.891 465.946 340.138 465.946C336.385 465.946 333.343 468.988 333.343 472.742C333.343 476.495 336.385 479.537 340.138 479.537Z" fill="#F2994A"/>
<path d="M362.223 479.537C365.976 479.537 369.019 476.495 369.019 472.742C369.019 468.988 365.976 465.946 362.223 465.946C358.47 465.946 355.428 468.988 355.428 472.742C355.428 476.495 358.47 479.537 362.223 479.537Z" fill="#F2994A"/>
<path d="M296.552 875.277L295.967 875.779V1052.9H1121.29V741.779L1111.45 742.525L296.552 875.277Z" fill="#3F3D56"/>
<path d="M585.999 635.641H355.529V644.934H585.999V635.641Z" fill="#3F3D56"/>
<path d="M585.999 656.086H355.529V665.379H585.999V656.086Z" fill="#3F3D56"/>
<path d="M433.591 676.531H355.529V685.824H433.591V676.531Z" fill="#3F3D56"/>
<path d="M1056 893.641H825.529V902.934H1056V893.641Z" fill="white"/>
<path d="M1056 914.086H825.529V923.379H1056V914.086Z" fill="white"/>
<path d="M903.591 934.531H825.529V943.824H903.591V934.531Z" fill="white"/>
<path d="M682.336 1044.33C687.342 1044.33 691.401 1040.28 691.401 1035.27C691.401 1030.26 687.342 1026.2 682.336 1026.2C677.329 1026.2 673.27 1030.26 673.27 1035.27C673.27 1040.28 677.329 1044.33 682.336 1044.33Z" fill="#F2F2F2"/>
<path d="M708.626 1045.24C713.633 1045.24 717.692 1041.18 717.692 1036.18C717.692 1031.17 713.633 1027.11 708.626 1027.11C703.619 1027.11 699.561 1031.17 699.561 1036.18C699.561 1041.18 703.619 1045.24 708.626 1045.24Z" fill="#F2F2F2"/>
<path d="M734.917 1046.15C739.924 1046.15 743.983 1042.09 743.983 1037.08C743.983 1032.08 739.924 1028.02 734.917 1028.02C729.91 1028.02 725.851 1032.08 725.851 1037.08C725.851 1042.09 729.91 1046.15 734.917 1046.15Z" fill="#F2F2F2"/>
<path d="M708.709 1043.43C712.715 1043.43 715.962 1040.18 715.962 1036.18C715.962 1032.17 712.715 1028.92 708.709 1028.92C704.704 1028.92 701.457 1032.17 701.457 1036.18C701.457 1040.18 704.704 1043.43 708.709 1043.43Z" fill="#3F3D56"/>
<path d="M509.591 742.014H431.529V759.824H509.591V742.014Z" fill="#3F3D56"/>
<path d="M973.591 983.014H895.529V1000.82H973.591V983.014Z" fill="white"/>
<path opacity="0.3" d="M471 805.014C500.823 805.014 525 780.837 525 751.014C525 721.19 500.823 697.014 471 697.014C441.177 697.014 417 721.19 417 751.014C417 780.837 441.177 805.014 471 805.014Z" fill="#F2994A"/>
<path opacity="0.3" d="M471 787.014C490.882 787.014 507 770.896 507 751.014C507 731.131 490.882 715.014 471 715.014C451.118 715.014 435 731.131 435 751.014C435 770.896 451.118 787.014 471 787.014Z" fill="#F2994A"/>
<path d="M471 776.014C484.807 776.014 496 764.821 496 751.014C496 737.207 484.807 726.014 471 726.014C457.193 726.014 446 737.207 446 751.014C446 764.821 457.193 776.014 471 776.014Z" fill="#F2994A"/>
<path opacity="0.3" d="M925.375 671.185C955.198 671.185 979.375 647.009 979.375 617.185C979.375 587.362 955.198 563.185 925.375 563.185C895.552 563.185 871.375 587.362 871.375 617.185C871.375 647.009 895.552 671.185 925.375 671.185Z" fill="#F2994A"/>
<path opacity="0.3" d="M925.375 653.185C945.257 653.185 961.375 637.068 961.375 617.185C961.375 597.303 945.257 581.185 925.375 581.185C905.493 581.185 889.375 597.303 889.375 617.185C889.375 637.068 905.493 653.185 925.375 653.185Z" fill="#F2994A"/>
<path d="M925.375 642.185C939.182 642.185 950.375 630.992 950.375 617.185C950.375 603.378 939.182 592.185 925.375 592.185C911.568 592.185 900.375 603.378 900.375 617.185C900.375 630.992 911.568 642.185 925.375 642.185Z" fill="#F2994A"/>
<path opacity="0.3" d="M935 1046.01C964.823 1046.01 989 1021.84 989 992.014C989 962.19 964.823 938.014 935 938.014C905.177 938.014 881 962.19 881 992.014C881 1021.84 905.177 1046.01 935 1046.01Z" fill="#F2994A"/>
<path opacity="0.3" d="M935 1028.01C954.882 1028.01 971 1011.9 971 992.014C971 972.131 954.882 956.014 935 956.014C915.118 956.014 899 972.131 899 992.014C899 1011.9 915.118 1028.01 935 1028.01Z" fill="#F2994A"/>
<path d="M935 1017.01C948.807 1017.01 960 1005.82 960 992.014C960 978.207 948.807 967.014 935 967.014C921.193 967.014 910 978.207 910 992.014C910 1005.82 921.193 1017.01 935 1017.01Z" fill="#F2994A"/>
<path d="M210.922 569.361L233.148 570.223L234.256 541.647L212.03 540.785L210.922 569.361Z" fill="#F2994A"/>
<path d="M312.29 640.864C312.29 640.864 343.069 626.158 342.576 638.859C342.084 651.559 311.551 659.915 311.551 659.915L312.29 640.864Z" fill="#FFB9B9"/>
<path d="M295.403 748.325C295.403 748.325 309.924 783.866 315.29 809.513C320.655 835.16 328.826 870.456 318.315 895.487C307.805 920.518 277.924 994.086 277.616 1002.02C277.308 1009.96 280.175 1018.02 273.825 1017.78C267.475 1017.53 232.918 1006.65 231.515 1001.83C230.113 997.002 243.305 984.794 243.305 984.794L275.883 882.712L241.893 816.207L217.377 915.422L212.575 1039.25C212.575 1039.25 189.008 1031.98 185.587 1038.2C185.587 1038.2 175.028 1023.48 173.687 1017.07C172.345 1010.66 178.673 888.482 178.673 888.482C178.673 888.482 157.041 749.319 174.504 749.996C191.967 750.673 260.367 708.808 295.403 748.325Z" fill="#2F2E41"/>
<path d="M274.071 1011.43C274.071 1011.43 290.18 1047.03 291.706 1048.68C293.232 1050.33 303.729 1066.63 295.791 1066.33C287.854 1066.02 269.111 1057.34 255.315 1044.09C241.52 1030.83 223.331 1007.87 224.98 1006.34C226.63 1004.82 237.927 1000.48 237.927 1000.48L274.071 1011.43Z" fill="#2F2E41"/>
<path d="M209.708 1031.19C209.708 1031.19 210.68 1047.13 213.608 1053.6C216.537 1060.07 216.168 1069.6 208.23 1069.29C200.292 1068.98 179.777 1065.01 179.777 1065.01C179.777 1065.01 178.559 1055.42 180.208 1053.89C181.857 1052.37 188.885 1035.15 185.894 1030.27C182.904 1025.38 209.708 1031.19 209.708 1031.19Z" fill="#2F2E41"/>
<path d="M197.964 514.006C197.964 514.006 181.042 540.379 174.446 546.483C167.85 552.587 186.408 566.026 186.408 566.026L219.623 570.494C219.623 570.494 219.205 540.269 220.916 537.155C222.626 534.042 197.964 514.006 197.964 514.006Z" fill="#FFB9B9"/>
<path d="M226.835 548.514C226.835 548.514 219.992 560.968 213.642 560.722C207.292 560.476 174.446 546.483 173.043 541.658C171.64 536.834 162.163 576.215 162.163 576.215L242.535 717.656L262.14 704.107L252.64 621.062L244.839 576.241L226.835 548.514Z" fill="#F2994A"/>
<path d="M170.079 675.098C173.285 681.804 175.287 688.798 175.009 695.958C174.997 696.276 174.985 696.593 174.957 696.91C174.196 711.603 168.783 728.596 166.841 740.954C165.432 749.819 165.833 756.29 171.021 757.811C183.598 761.478 169.187 764.099 217.847 780.296C266.507 796.492 274.998 782.512 275.122 779.337C275.245 776.162 268.23 752.041 269.88 750.515C271.529 748.989 292.954 770.489 299.427 767.56C305.901 764.631 300.166 748.509 300.166 748.509C300.166 748.509 285.583 714.555 285.891 706.618C286.199 698.68 263.802 661.243 263.802 661.243L248.568 562.076C248.568 562.076 242.71 549.13 234.834 547.234C226.958 545.339 220.423 549.855 220.423 549.855L233.603 578.985L247.508 630.402L245.182 649.391C245.182 649.391 229.012 615.376 218.392 602.244C207.771 589.113 185.128 558.026 185.128 558.026C185.128 558.026 179.841 540.189 183.832 534.858C187.824 529.512 167.186 528.712 158.386 550.63C153.722 562.246 146.15 579.569 141.407 595.698C137.18 609.986 135.183 623.344 139.371 630.979C145.771 642.643 161.871 657.974 170.079 675.098Z" fill="#575A89"/>
<path opacity="0.1" d="M139.371 630.979C145.771 642.643 161.871 657.974 170.079 675.098C172.222 667.374 174.838 659.383 174.838 659.383C174.838 659.383 184.868 605.714 155.198 591.844C150.281 591.369 145.364 592.743 141.407 595.698C137.18 609.986 135.183 623.344 139.371 630.979Z" fill="black"/>
<path d="M257.157 627.597L282.311 634.932L317.237 636.286L320.83 666.634L263.432 670.768C263.432 670.768 249.096 630.464 257.157 627.597Z" fill="#575A89"/>
<path d="M216.139 729.636C216.139 729.636 249.791 735.219 242.11 745.346C234.429 755.473 204.618 744.826 204.618 744.826L216.139 729.636Z" fill="#FFB9B9"/>
<path opacity="0.1" d="M174.957 696.91C174.196 711.603 168.783 728.596 166.841 740.954C177.561 751.1 187.756 760.05 191.597 760.199C199.535 760.506 212.297 759.411 216.998 761.184C221.699 762.956 224.456 732.854 224.456 732.854C224.456 732.854 221.651 723.206 209.135 717.951C200.687 714.395 184.494 704.752 174.957 696.91Z" fill="black"/>
<path d="M155.567 582.319C155.567 582.319 128.702 578.097 130.153 622.672C131.605 667.246 127.321 695.699 138.126 704.067C148.931 712.436 184.029 750.365 191.967 750.673C199.904 750.981 212.666 749.886 217.367 751.658C222.069 753.431 224.826 723.329 224.826 723.329C224.826 723.329 222.02 713.68 209.504 708.425C196.989 703.17 167.503 684.537 167.749 678.187C167.995 671.837 175.207 649.858 175.207 649.858C175.207 649.858 185.238 596.189 155.567 582.319Z" fill="#575A89"/>
<path d="M221.654 553.057C240.958 553.057 256.607 537.408 256.607 518.105C256.607 498.801 240.958 483.152 221.654 483.152C202.351 483.152 186.702 498.801 186.702 518.105C186.702 537.408 202.351 553.057 221.654 553.057Z" fill="#FFB9B9"/>
<path d="M245.189 468.008C246.032 468.734 247.041 469.241 248.128 469.483C248.673 469.58 249.234 469.457 249.69 469.142C250.145 468.827 250.457 468.344 250.558 467.799C251.357 469.458 252.26 471.225 253.892 472.076C255.525 472.927 258.05 472.213 258.285 470.387C258.523 471.774 259.137 473.069 260.059 474.131C261.072 475.097 262.909 475.341 263.793 474.256C263.078 478.164 263.519 482.182 263.295 486.148C263.07 490.114 262.013 494.319 259.016 496.926C254.647 500.73 248.075 499.791 242.327 499.071C241.458 498.888 240.556 498.937 239.712 499.214C237.559 500.131 237.657 503.127 237.628 505.466C237.452 509.571 235.828 513.48 233.043 516.5C230.258 519.521 226.493 521.456 222.416 521.964C220.134 522.316 217.806 521.748 215.943 520.384C214.311 519.001 213.478 516.746 211.608 515.707C208.565 514.016 204.876 516.481 202.652 519.158C200.428 521.835 198.236 525.128 194.79 525.618C190.233 526.266 186.762 521.622 185.06 517.345C182.71 511.352 181.585 504.949 181.749 498.514C181.914 492.078 183.365 485.741 186.018 479.876C195.533 459.135 228.036 455.854 245.189 468.008Z" fill="#2F2E41"/>
<path d="M1084.22 1023.77C1096.53 1044.76 1121.36 1053.07 1121.36 1053.07C1121.36 1053.07 1126.23 1027.35 1113.92 1006.36C1101.61 985.364 1076.78 977.053 1076.78 977.053C1076.78 977.053 1071.91 1002.78 1084.22 1023.77Z" fill="#F2F2F2"/>
<path d="M1091.9 1016.44C1113.19 1028.23 1122.11 1052.85 1122.11 1052.85C1122.11 1052.85 1096.51 1058.35 1075.22 1046.56C1053.94 1034.77 1045.02 1010.15 1045.02 1010.15C1045.02 1010.15 1070.62 1004.65 1091.9 1016.44Z" fill="#F2994A"/>
</g>
<defs>
<clipPath id="clip0">
<rect width="1098.75" height="632.37" fill="white" transform="translate(121 460)"/>
</clipPath>
</defs>
</svg>
